<?xml version="1.0" encoding="UTF-8"?>
<svg xmlns="http://www.w3.org/2000/svg" xmlns:xlink="http://www.w3.org/1999/xlink" width="800pt" height="320pt" viewBox="0 0 800 320" version="1.1">
<g id="surface1">
<path style="fill:none;stroke-width:1.2;stroke-linecap:butt;stroke-linejoin:round;stroke:rgb(20%,20%,20%);stroke-opacity:1;stroke-miterlimit:10;" d="M 149.485287 237.99511 C 169.625912 271.014642 203.301694 242.62011 241.270444 281.577142 " transform="matrix(1,0,0,-1,31.7569,487.553704)"/>
<path style="fill:none;stroke-width:1.2;stroke-linecap:butt;stroke-linejoin:round;stroke:rgb(20%,20%,20%);stroke-opacity:1;stroke-miterlimit:10;" d="M 177.219662 279.596673 C 181.1806 237.006829 206.602475 250.706048 219.14935 247.819329 C 231.696225 244.928704 231.3681 225.448235 270.985288 246.252923 " transform="matrix(1,0,0,-1,31.7569,487.553704)"/>
<path style="fill:none;stroke-width:1.2;stroke-linecap:butt;stroke-linejoin:round;stroke:rgb(20%,20%,20%);stroke-opacity:1;stroke-miterlimit:10;" d="M 255.469662 276.956048 C 243.914975 244.928704 221.625912 258.631829 212.188412 258.163079 C 202.750912 257.698235 206.164975 243.05761 198.625912 239.124017 C 191.08685 235.190423 172.598569 241.959954 156.08685 215.874017 " transform="matrix(1,0,0,-1,31.7569,487.553704)"/>
<path style=" stroke:none;fill-rule:evenodd;fill:rgb(20%,20%,20%);fill-opacity:1;" d="M 195.5625 237.863281 C 195.5625 233.0625 188.363281 233.0625 188.363281 237.863281 C 188.363281 242.660156 195.5625 242.660156 195.5625 237.863281 Z M 195.5625 237.863281 "/>
<path style=" stroke:none;fill-rule:evenodd;fill:rgb(20%,20%,20%);fill-opacity:1;" d="M 232.496094 228.839844 C 232.496094 224.039062 225.296875 224.039062 225.296875 228.839844 C 225.296875 233.640625 232.496094 233.640625 232.496094 228.839844 Z M 232.496094 228.839844 "/>
<path style=" stroke:none;fill-rule:evenodd;fill:rgb(20%,20%,20%);fill-opacity:1;" d="M 266.847656 214.679688 C 266.847656 209.878906 259.644531 209.878906 259.644531 214.679688 C 259.644531 219.480469 266.847656 219.480469 266.847656 214.679688 Z M 266.847656 214.679688 "/>
<path style=" stroke:none;fill-rule:evenodd;fill:rgb(20%,20%,20%);fill-opacity:1;" d="M 214.457031 219.457031 C 214.457031 214.65625 207.257812 214.65625 207.257812 219.457031 C 207.257812 224.253906 214.457031 224.253906 214.457031 219.457031 Z M 214.457031 219.457031 "/>
<path style=" stroke:none;fill-rule:evenodd;fill:rgb(20%,20%,20%);fill-opacity:1;" d="M 252.492188 239.414062 C 252.492188 234.613281 245.292969 234.613281 245.292969 239.414062 C 245.292969 244.210938 252.492188 244.210938 252.492188 239.414062 Z M 252.492188 239.414062 "/>
<path style=" stroke:none;fill-rule:evenodd;fill:rgb(20%,20%,20%);fill-opacity:1;" d="M 290.007812 248.484375 C 290.007812 243.683594 282.804688 243.683594 282.804688 248.484375 C 282.804688 253.28125 290.007812 253.28125 290.007812 248.484375 Z M 290.007812 248.484375 "/>
<path style=" stroke:none;fill-rule:evenodd;fill:rgb(20%,20%,20%);fill-opacity:1;" d="M 207.46875 255.308594 C 207.46875 250.507812 200.265625 250.507812 200.265625 255.308594 C 200.265625 260.109375 207.46875 260.109375 207.46875 255.308594 Z M 207.46875 255.308594 "/>
<path style=" stroke:none;fill-rule:evenodd;fill:rgb(20%,20%,20%);fill-opacity:1;" d="M 233.980469 248.429688 C 233.980469 243.628906 226.78125 243.628906 226.78125 248.429688 C 226.78125 253.230469 233.980469 253.230469 233.980469 248.429688 Z M 233.980469 248.429688 "/>
<path style=" stroke:none;fill-rule:evenodd;fill:rgb(20%,20%,20%);fill-opacity:1;" d="M 271.609375 231.359375 C 271.609375 226.558594 264.40625 226.558594 264.40625 231.359375 C 264.40625 236.160156 271.609375 236.160156 271.609375 231.359375 Z M 271.609375 231.359375 "/>
<path style=" stroke:none;fill-rule:evenodd;fill:rgb(20%,20%,20%);fill-opacity:1;" d="M 287.597656 217.921875 C 287.597656 213.125 280.398438 213.125 280.398438 217.921875 C 280.398438 222.722656 287.597656 222.722656 287.597656 217.921875 Z M 287.597656 217.921875 "/>
<path style="fill:none;stroke-width:1.2;stroke-linecap:butt;stroke-linejoin:round;stroke:rgb(100%,50%,50%);stroke-opacity:1;stroke-dasharray:4;stroke-miterlimit:10;" d="M 197.114194 282.291985 L 248.289975 228.475579 " transform="matrix(1,0,0,-1,31.7569,487.553704)"/>
<path style=" stroke:none;fill-rule:evenodd;fill:rgb(20%,20%,20%);fill-opacity:1;" d="M 250.273438 223.980469 C 250.273438 219.179688 243.070312 219.179688 243.070312 223.980469 C 243.070312 228.78125 250.273438 228.78125 250.273438 223.980469 Z M 250.273438 223.980469 "/>
<path style=" stroke:none;fill-rule:evenodd;fill:rgb(20%,20%,20%);fill-opacity:1;" d="M 256.722656 230.765625 C 256.722656 225.964844 249.523438 225.964844 249.523438 230.765625 C 249.523438 235.566406 256.722656 235.566406 256.722656 230.765625 Z M 256.722656 230.765625 "/>
<path style=" stroke:none;fill-rule:evenodd;fill:rgb(20%,20%,20%);fill-opacity:1;" d="M 275.648438 250.664062 C 275.648438 245.863281 268.445312 245.863281 268.445312 250.664062 C 268.445312 255.464844 275.648438 255.464844 275.648438 250.664062 Z M 275.648438 250.664062 "/>
<path style="fill:none;stroke-width:1.2;stroke-linecap:butt;stroke-linejoin:round;stroke:rgb(100%,50%,50%);stroke-opacity:1;stroke-dasharray:4;stroke-miterlimit:10;" d="M 326.094663 373.471673 L 363.922788 486.952142 " transform="matrix(1,0,0,-1,31.7569,487.553704)"/>
<path style="fill:none;stroke-width:1.2;stroke-linecap:butt;stroke-linejoin:round;stroke:rgb(50%,50%,100%);stroke-opacity:1;stroke-miterlimit:10;" d="M 301.188413 351.663079 L 372.254819 260.768548 " transform="matrix(1,0,0,-1,31.7569,487.553704)"/>
<path style="fill:none;stroke-width:1.2;stroke-linecap:butt;stroke-linejoin:round;stroke:rgb(50%,50%,100%);stroke-opacity:1;stroke-miterlimit:10;" d="M 333.094663 354.077142 L 404.164975 263.186517 " transform="matrix(1,0,0,-1,31.7569,487.553704)"/>
<path style="fill:none;stroke-width:1.2;stroke-linecap:butt;stroke-linejoin:round;stroke:rgb(50%,50%,100%);stroke-opacity:1;stroke-miterlimit:10;" d="M 301.188413 351.663079 L 308.438413 255.936517 " transform="matrix(1,0,0,-1,31.7569,487.553704)"/>
<path style="fill:none;stroke-width:1.2;stroke-linecap:butt;stroke-linejoin:round;stroke:rgb(50%,50%,100%);stroke-opacity:1;stroke-miterlimit:10;" d="M 301.188413 351.663079 L 404.164975 263.186517 " transform="matrix(1,0,0,-1,31.7569,487.553704)"/>
<path style="fill:none;stroke-width:1.2;stroke-linecap:butt;stroke-linejoin:round;stroke:rgb(50%,50%,100%);stroke-opacity:1;stroke-miterlimit:10;" d="M 380.957944 357.706048 L 372.254819 260.768548 " transform="matrix(1,0,0,-1,31.7569,487.553704)"/>
<path style="fill:none;stroke-width:1.2;stroke-linecap:butt;stroke-linejoin:round;stroke:rgb(50%,50%,100%);stroke-opacity:1;stroke-miterlimit:10;" d="M 333.094663 354.077142 L 372.254819 260.768548 " transform="matrix(1,0,0,-1,31.7569,487.553704)"/>
<path style="fill:none;stroke-width:1.2;stroke-linecap:butt;stroke-linejoin:round;stroke:rgb(50%,50%,100%);stroke-opacity:1;stroke-miterlimit:10;" d="M 380.957944 357.706048 L 404.164975 263.186517 " transform="matrix(1,0,0,-1,31.7569,487.553704)"/>
<path style="fill:none;stroke-width:1.2;stroke-linecap:butt;stroke-linejoin:round;stroke:rgb(50%,50%,100%);stroke-opacity:1;stroke-miterlimit:10;" d="M 380.957944 357.706048 L 308.438413 255.936517 " transform="matrix(1,0,0,-1,31.7569,487.553704)"/>
<path style="fill:none;stroke-width:1.2;stroke-linecap:butt;stroke-linejoin:round;stroke:rgb(50%,100%,50%);stroke-opacity:1;stroke-miterlimit:10;" d="M -17.585025 215.131829 L 46.414975 231.131829 " transform="matrix(1,0,0,-1,31.7569,487.553704)"/>
<path style="fill:none;stroke-width:1.2;stroke-linecap:butt;stroke-linejoin:round;stroke:rgb(50%,100%,50%);stroke-opacity:1;stroke-miterlimit:10;" d="M -17.585025 215.131829 L 110.414975 263.131829 " transform="matrix(1,0,0,-1,31.7569,487.553704)"/>
<path style="fill:none;stroke-width:1.2;stroke-linecap:butt;stroke-linejoin:round;stroke:rgb(50%,100%,50%);stroke-opacity:1;stroke-miterlimit:10;" d="M -17.585025 215.131829 L 30.414975 327.131829 " transform="matrix(1,0,0,-1,31.7569,487.553704)"/>
<path style="fill:none;stroke-width:1.2;stroke-linecap:butt;stroke-linejoin:round;stroke:rgb(50%,100%,50%);stroke-opacity:1;stroke-miterlimit:10;" d="M -17.585025 215.131829 L 94.414975 375.131829 " transform="matrix(1,0,0,-1,31.7569,487.553704)"/>
<path style="fill:none;stroke-width:1.2;stroke-linecap:butt;stroke-linejoin:round;stroke:rgb(50%,100%,50%);stroke-opacity:1;stroke-miterlimit:10;" d="M 62.414975 295.131829 L 94.414975 375.131829 " transform="matrix(1,0,0,-1,31.7569,487.553704)"/>
<path style="fill:none;stroke-width:1.2;stroke-linecap:butt;stroke-linejoin:round;stroke:rgb(50%,100%,50%);stroke-opacity:1;stroke-miterlimit:10;" d="M -1.585025 279.131829 L 30.414975 327.131829 " transform="matrix(1,0,0,-1,31.7569,487.553704)"/>
<path style="fill:none;stroke-width:1.2;stroke-linecap:butt;stroke-linejoin:round;stroke:rgb(50%,100%,50%);stroke-opacity:1;stroke-miterlimit:10;" d="M -1.585025 279.131829 L 94.414975 375.131829 " transform="matrix(1,0,0,-1,31.7569,487.553704)"/>
<path style="fill:none;stroke-width:1.2;stroke-linecap:butt;stroke-linejoin:round;stroke:rgb(50%,100%,50%);stroke-opacity:1;stroke-miterlimit:10;" d="M 14.414975 359.131829 L 94.414975 375.131829 " transform="matrix(1,0,0,-1,31.7569,487.553704)"/>
<path style="fill:none;stroke-width:1.2;stroke-linecap:butt;stroke-linejoin:round;stroke:rgb(20%,20%,20%);stroke-opacity:1;stroke-dasharray:4;stroke-miterlimit:10;" d="M 62.414975 295.131829 L 190.414975 295.131829 " transform="matrix(1,0,0,-1,31.7569,487.553704)"/>
<path style="fill:none;stroke-width:1.2;stroke-linecap:butt;stroke-linejoin:round;stroke:rgb(20%,20%,20%);stroke-opacity:1;stroke-dasharray:4;stroke-miterlimit:10;" d="M 62.414975 295.131829 L 62.414975 407.131829 " transform="matrix(1,0,0,-1,31.7569,487.553704)"/>
<path style="fill:none;stroke-width:1.2;stroke-linecap:butt;stroke-linejoin:round;stroke:rgb(20%,20%,20%);stroke-opacity:1;stroke-dasharray:4;stroke-miterlimit:10;" d="M 14.414975 359.131829 L 142.414975 359.131829 " transform="matrix(1,0,0,-1,31.7569,487.553704)"/>
<path style="fill:none;stroke-width:1.2;stroke-linecap:butt;stroke-linejoin:round;stroke:rgb(20%,20%,20%);stroke-opacity:1;stroke-dasharray:4;stroke-miterlimit:10;" d="M 14.414975 359.131829 L 14.414975 471.131829 " transform="matrix(1,0,0,-1,31.7569,487.553704)"/>
<path style="fill:none;stroke-width:1.2;stroke-linecap:butt;stroke-linejoin:round;stroke:rgb(20%,20%,20%);stroke-opacity:1;stroke-dasharray:4;stroke-miterlimit:10;" d="M -17.585025 215.131829 L 110.414975 215.131829 " transform="matrix(1,0,0,-1,31.7569,487.553704)"/>
<path style="fill:none;stroke-width:1.2;stroke-linecap:butt;stroke-linejoin:round;stroke:rgb(20%,20%,20%);stroke-opacity:1;stroke-dasharray:4;stroke-miterlimit:10;" d="M -17.585025 215.131829 L -17.585025 327.131829 " transform="matrix(1,0,0,-1,31.7569,487.553704)"/>
<path style="fill:none;stroke-width:1.2;stroke-linecap:butt;stroke-linejoin:round;stroke:rgb(20%,20%,20%);stroke-opacity:1;stroke-dasharray:4;stroke-miterlimit:10;" d="M -1.585025 279.131829 L 126.414975 279.131829 " transform="matrix(1,0,0,-1,31.7569,487.553704)"/>
<path style="fill:none;stroke-width:1.2;stroke-linecap:butt;stroke-linejoin:round;stroke:rgb(20%,20%,20%);stroke-opacity:1;stroke-dasharray:4;stroke-miterlimit:10;" d="M -1.585025 279.131829 L -1.585025 391.131829 " transform="matrix(1,0,0,-1,31.7569,487.553704)"/>
<path style=" stroke:none;fill-rule:evenodd;fill:rgb(100%,50%,50%);fill-opacity:1;" d="M 65.773438 160.421875 C 65.773438 155.621094 58.574219 155.621094 58.574219 160.421875 C 58.574219 165.222656 65.773438 165.222656 65.773438 160.421875 Z M 65.773438 160.421875 "/>
<path style=" stroke:none;fill-rule:evenodd;fill:rgb(100%,50%,50%);fill-opacity:1;" d="M 81.773438 256.421875 C 81.773438 251.621094 74.574219 251.621094 74.574219 256.421875 C 74.574219 261.222656 81.773438 261.222656 81.773438 256.421875 Z M 81.773438 256.421875 "/>
<path style=" stroke:none;fill-rule:evenodd;fill:rgb(100%,50%,50%);fill-opacity:1;" d="M 129.773438 112.421875 C 129.773438 107.621094 122.574219 107.621094 122.574219 112.421875 C 122.574219 117.222656 129.773438 117.222656 129.773438 112.421875 Z M 129.773438 112.421875 "/>
<path style=" stroke:none;fill-rule:evenodd;fill:rgb(100%,50%,50%);fill-opacity:1;" d="M 145.773438 224.421875 C 145.773438 219.621094 138.574219 219.621094 138.574219 224.421875 C 138.574219 229.222656 145.773438 229.222656 145.773438 224.421875 Z M 145.773438 224.421875 "/>
<path style=" stroke:none;fill-rule:evenodd;fill:rgb(50%,50%,100%);fill-opacity:1;" d="M 49.773438 128.421875 C 49.773438 123.621094 42.574219 123.621094 42.574219 128.421875 C 42.574219 133.222656 49.773438 133.222656 49.773438 128.421875 Z M 49.773438 128.421875 "/>
<path style=" stroke:none;fill-rule:evenodd;fill:rgb(50%,50%,100%);fill-opacity:1;" d="M 97.773438 192.421875 C 97.773438 187.621094 90.574219 187.621094 90.574219 192.421875 C 90.574219 197.222656 97.773438 197.222656 97.773438 192.421875 Z M 97.773438 192.421875 "/>
<path style=" stroke:none;fill-rule:evenodd;fill:rgb(50%,50%,100%);fill-opacity:1;" d="M 33.773438 208.421875 C 33.773438 203.621094 26.574219 203.621094 26.574219 208.421875 C 26.574219 213.222656 33.773438 213.222656 33.773438 208.421875 Z M 33.773438 208.421875 "/>
<path style=" stroke:none;fill-rule:evenodd;fill:rgb(50%,50%,100%);fill-opacity:1;" d="M 17.773438 272.421875 C 17.773438 267.621094 10.574219 267.621094 10.574219 272.421875 C 10.574219 277.222656 17.773438 277.222656 17.773438 272.421875 Z M 17.773438 272.421875 "/>
<path style=" stroke:none;fill-rule:evenodd;fill:rgb(100%,50%,50%);fill-opacity:1;" d="M 324.214844 184.964844 C 324.214844 180.164062 317.015625 180.164062 317.015625 184.964844 C 317.015625 189.761719 324.214844 189.761719 324.214844 184.964844 Z M 324.214844 184.964844 "/>
<path style=" stroke:none;fill-rule:evenodd;fill:rgb(100%,50%,50%);fill-opacity:1;" d="M 435.894531 176.503906 C 435.894531 171.703125 428.695312 171.703125 428.695312 176.503906 C 428.695312 181.304688 435.894531 181.304688 435.894531 176.503906 Z M 435.894531 176.503906 "/>
<path style="fill:none;stroke-width:1.2;stroke-linecap:butt;stroke-linejoin:round;stroke:rgb(50%,50%,100%);stroke-opacity:1;stroke-miterlimit:10;" d="M 333.094663 354.077142 L 308.438413 255.936517 " transform="matrix(1,0,0,-1,31.7569,487.553704)"/>
<path style=" stroke:none;fill-rule:evenodd;fill:rgb(100%,50%,50%);fill-opacity:1;" d="M 356.125 182.546875 C 356.125 177.746094 348.921875 177.746094 348.921875 182.546875 C 348.921875 187.347656 356.125 187.347656 356.125 182.546875 Z M 356.125 182.546875 "/>
<path style=" stroke:none;fill-rule:evenodd;fill:rgb(50%,100%,50%);fill-opacity:1;" d="M 668.660156 266.902344 C 668.660156 262.101562 661.460938 262.101562 661.460938 266.902344 C 661.460938 271.703125 668.660156 271.703125 668.660156 266.902344 Z M 668.660156 266.902344 "/>
<path style=" stroke:none;fill-rule:evenodd;fill:rgb(50%,100%,50%);fill-opacity:1;" d="M 780.660156 266.902344 C 780.660156 262.101562 773.460938 262.101562 773.460938 266.902344 C 773.460938 271.703125 780.660156 271.703125 780.660156 266.902344 Z M 780.660156 266.902344 "/>
<path style=" stroke:none;fill-rule:evenodd;fill:rgb(50%,100%,50%);fill-opacity:1;" d="M 700.660156 266.902344 C 700.660156 262.101562 693.460938 262.101562 693.460938 266.902344 C 693.460938 271.703125 700.660156 271.703125 700.660156 266.902344 Z M 700.660156 266.902344 "/>
<path style=" stroke:none;fill-rule:evenodd;fill:rgb(100%,50%,50%);fill-opacity:1;" d="M 684.660156 218.902344 C 684.660156 214.101562 677.460938 214.101562 677.460938 218.902344 C 677.460938 223.703125 684.660156 223.703125 684.660156 218.902344 Z M 684.660156 218.902344 "/>
<path style=" stroke:none;fill-rule:evenodd;fill:rgb(100%,50%,50%);fill-opacity:1;" d="M 716.660156 218.902344 C 716.660156 214.101562 709.460938 214.101562 709.460938 218.902344 C 709.460938 223.703125 716.660156 223.703125 716.660156 218.902344 Z M 716.660156 218.902344 "/>
<path style=" stroke:none;fill-rule:evenodd;fill:rgb(100%,50%,50%);fill-opacity:1;" d="M 764.660156 218.902344 C 764.660156 214.101562 757.460938 214.101562 757.460938 218.902344 C 757.460938 223.703125 764.660156 223.703125 764.660156 218.902344 Z M 764.660156 218.902344 "/>
<path style=" stroke:none;fill-rule:evenodd;fill:rgb(50%,50%,100%);fill-opacity:1;" d="M 684.660156 314.902344 C 684.660156 310.101562 677.460938 310.101562 677.460938 314.902344 C 677.460938 319.703125 684.660156 319.703125 684.660156 314.902344 Z M 684.660156 314.902344 "/>
<path style=" stroke:none;fill-rule:evenodd;fill:rgb(50%,50%,100%);fill-opacity:1;" d="M 748.660156 314.902344 C 748.660156 310.101562 741.460938 310.101562 741.460938 314.902344 C 741.460938 319.703125 748.660156 319.703125 748.660156 314.902344 Z M 748.660156 314.902344 "/>
<path style=" stroke:none;fill-rule:evenodd;fill:rgb(50%,50%,100%);fill-opacity:1;" d="M 780.660156 314.902344 C 780.660156 310.101562 773.460938 310.101562 773.460938 314.902344 C 773.460938 319.703125 780.660156 319.703125 780.660156 314.902344 Z M 780.660156 314.902344 "/>
<path style=" stroke:none;fill-rule:evenodd;fill:rgb(20%,20%,20%);fill-opacity:1;" d="M 403.355469 247.554688 C 403.355469 242.753906 396.15625 242.753906 396.15625 247.554688 C 396.15625 252.355469 403.355469 252.355469 403.355469 247.554688 Z M 403.355469 247.554688 "/>
<path style=" stroke:none;fill-rule:evenodd;fill:rgb(20%,20%,20%);fill-opacity:1;" d="M 419.355469 231.554688 C 419.355469 226.753906 412.15625 226.753906 412.15625 231.554688 C 412.15625 236.355469 419.355469 236.355469 419.355469 231.554688 Z M 419.355469 231.554688 "/>
<path style=" stroke:none;fill-rule:evenodd;fill:rgb(20%,20%,20%);fill-opacity:1;" d="M 387.355469 263.554688 C 387.355469 258.753906 380.15625 258.753906 380.15625 263.554688 C 380.15625 268.355469 387.355469 268.355469 387.355469 263.554688 Z M 387.355469 263.554688 "/>
<path style=" stroke:none;fill-rule:evenodd;fill:rgb(20%,20%,20%);fill-opacity:1;" d="M 531.355469 215.554688 C 531.355469 210.753906 524.15625 210.753906 524.15625 215.554688 C 524.15625 220.355469 531.355469 220.355469 531.355469 215.554688 Z M 531.355469 215.554688 "/>
<path style=" stroke:none;fill-rule:evenodd;fill:rgb(20%,20%,20%);fill-opacity:1;" d="M 275.355469 279.554688 C 275.355469 274.753906 268.15625 274.753906 268.15625 279.554688 C 268.15625 284.355469 275.355469 284.355469 275.355469 279.554688 Z M 275.355469 279.554688 "/>
<path style="fill:none;stroke-width:1.2;stroke-linecap:butt;stroke-linejoin:round;stroke:rgb(20%,20%,20%);stroke-opacity:1;stroke-miterlimit:10;" d="M 441.247006 279.459954 L 424.782163 438.612298 " transform="matrix(1,0,0,-1,31.7569,487.553704)"/>
<path style="fill-rule:evenodd;fill:rgb(20%,20%,20%);fill-opacity:1;stroke-width:1.2;stroke-linecap:butt;stroke-linejoin:round;stroke:rgb(20%,20%,20%);stroke-opacity:1;stroke-miterlimit:10;" d="M 424.782163 438.612298 L 422.500913 428.323235 L 425.606381 430.655267 L 429.125913 429.006829 Z M 424.782163 438.612298 " transform="matrix(1,0,0,-1,31.7569,487.553704)"/>
<path style="fill:none;stroke-width:1.2;stroke-linecap:butt;stroke-linejoin:round;stroke:rgb(20%,20%,20%);stroke-opacity:1;stroke-miterlimit:10;" d="M 457.575131 277.127923 L 457.161069 281.108392 " transform="matrix(1,0,0,-1,31.7569,487.553704)"/>
<path style="fill:none;stroke-width:1.2;stroke-linecap:butt;stroke-linejoin:round;stroke:rgb(20%,20%,20%);stroke-opacity:1;stroke-miterlimit:10;" d="M 489.403256 280.420892 L 488.9931 284.40136 " transform="matrix(1,0,0,-1,31.7569,487.553704)"/>
<path style="fill:none;stroke-width:1.2;stroke-linecap:butt;stroke-linejoin:round;stroke:rgb(20%,20%,20%);stroke-opacity:1;stroke-miterlimit:10;" d="M 497.364194 281.24511 L 496.950131 285.221673 " transform="matrix(1,0,0,-1,31.7569,487.553704)"/>
<path style="fill:none;stroke-width:1.2;stroke-linecap:butt;stroke-linejoin:round;stroke:rgb(20%,20%,20%);stroke-opacity:1;stroke-miterlimit:10;" d="M 545.106381 286.18261 L 544.696225 290.163079 " transform="matrix(1,0,0,-1,31.7569,487.553704)"/>
<path style="fill:none;stroke-width:1.2;stroke-linecap:butt;stroke-linejoin:round;stroke:rgb(20%,20%,20%);stroke-opacity:1;stroke-dasharray:1,3;stroke-miterlimit:10;" d="M 496.950131 285.221673 L 482.954038 420.499017 " transform="matrix(1,0,0,-1,31.7569,487.553704)"/>
<path style="fill:none;stroke-width:1.2;stroke-linecap:butt;stroke-linejoin:round;stroke:rgb(20%,20%,20%);stroke-opacity:1;stroke-dasharray:1,3;stroke-miterlimit:10;" d="M 544.696225 290.163079 L 530.700131 425.440423 " transform="matrix(1,0,0,-1,31.7569,487.553704)"/>
<path style="fill:none;stroke-width:1.2;stroke-linecap:butt;stroke-linejoin:round;stroke:rgb(20%,20%,20%);stroke-opacity:1;stroke-miterlimit:10;" d="M 424.098569 406.37011 L 428.075131 406.780267 " transform="matrix(1,0,0,-1,31.7569,487.553704)"/>
<path style="fill:none;stroke-width:1.2;stroke-linecap:butt;stroke-linejoin:round;stroke:rgb(20%,20%,20%);stroke-opacity:1;stroke-miterlimit:10;" d="M 428.215756 366.581048 L 432.192319 366.99511 " transform="matrix(1,0,0,-1,31.7569,487.553704)"/>
<path style="fill:none;stroke-width:1.2;stroke-linecap:butt;stroke-linejoin:round;stroke:rgb(20%,20%,20%);stroke-opacity:1;stroke-dasharray:1,3;stroke-miterlimit:10;" d="M 432.192319 366.99511 L 559.512631 380.166985 " transform="matrix(1,0,0,-1,31.7569,487.553704)"/>
<path style="fill:none;stroke-width:1.2;stroke-linecap:butt;stroke-linejoin:round;stroke:rgb(20%,20%,20%);stroke-opacity:1;stroke-miterlimit:10;" d="M 430.684506 342.709954 L 434.661069 343.12011 " transform="matrix(1,0,0,-1,31.7569,487.553704)"/>
<path style="fill:none;stroke-width:1.2;stroke-linecap:butt;stroke-linejoin:round;stroke:rgb(20%,20%,20%);stroke-opacity:1;stroke-miterlimit:10;" d="M 435.622006 294.96386 L 439.602475 295.374017 " transform="matrix(1,0,0,-1,31.7569,487.553704)"/>
<path style="fill:none;stroke-width:1.2;stroke-linecap:butt;stroke-linejoin:round;stroke:rgb(20%,20%,20%);stroke-opacity:1;stroke-miterlimit:10;" d="M 423.27435 414.327142 L 427.254819 414.737298 " transform="matrix(1,0,0,-1,31.7569,487.553704)"/>
<path style="fill:none;stroke-width:1.2;stroke-linecap:butt;stroke-linejoin:round;stroke:rgb(20%,20%,20%);stroke-opacity:1;stroke-dasharray:1,3;stroke-miterlimit:10;" d="M 427.254819 414.737298 L 554.575131 427.909173 " transform="matrix(1,0,0,-1,31.7569,487.553704)"/>
<path style="fill:none;stroke-width:1.2;stroke-linecap:butt;stroke-linejoin:round;stroke:rgb(20%,20%,20%);stroke-opacity:1;stroke-dasharray:1,3;stroke-miterlimit:10;" d="M 434.661069 343.12011 L 561.981381 356.291985 " transform="matrix(1,0,0,-1,31.7569,487.553704)"/>
<path style="fill:none;stroke-width:1.2;stroke-linecap:butt;stroke-linejoin:round;stroke:rgb(20%,20%,20%);stroke-opacity:1;stroke-dasharray:1,3;stroke-miterlimit:10;" d="M 439.602475 295.377923 L 566.922788 308.549798 " transform="matrix(1,0,0,-1,31.7569,487.553704)"/>
<path style="fill:none;stroke-width:1.2;stroke-linecap:butt;stroke-linejoin:round;stroke:rgb(20%,20%,20%);stroke-opacity:1;stroke-dasharray:1,3;stroke-miterlimit:10;" d="M 488.9931 284.40136 L 474.997006 419.678704 " transform="matrix(1,0,0,-1,31.7569,487.553704)"/>
<path style="fill:none;stroke-width:1.2;stroke-linecap:butt;stroke-linejoin:round;stroke:rgb(20%,20%,20%);stroke-opacity:1;stroke-dasharray:1,3;stroke-miterlimit:10;" d="M 457.164975 281.108392 L 443.168881 416.385735 " transform="matrix(1,0,0,-1,31.7569,487.553704)"/>
<path style="fill:none;stroke-width:1.2;stroke-linecap:butt;stroke-linejoin:round;stroke:rgb(20%,20%,20%);stroke-opacity:1;stroke-miterlimit:10;" d="M 441.247006 279.459954 L 437.270444 279.049798 " transform="matrix(1,0,0,-1,31.7569,487.553704)"/>
<path style="fill:none;stroke-width:1.2;stroke-linecap:butt;stroke-linejoin:round;stroke:rgb(20%,20%,20%);stroke-opacity:1;stroke-miterlimit:10;" d="M 441.247006 279.459954 L 441.661069 275.483392 " transform="matrix(1,0,0,-1,31.7569,487.553704)"/>
<path style=" stroke:none;fill-rule:evenodd;fill:rgb(100%,50%,50%);fill-opacity:1;" d="M 531.148438 74.101562 L 540.148438 65.101562 L 538.886719 63.84375 L 529.886719 72.84375 Z M 531.148438 74.101562 "/>
<path style=" stroke:none;fill-rule:evenodd;fill:rgb(100%,50%,50%);fill-opacity:1;" d="M 531.148438 63.84375 L 540.148438 72.84375 L 538.886719 74.101562 L 529.886719 65.101562 Z M 531.148438 63.84375 "/>
<path style="fill:none;stroke-width:1.2;stroke-linecap:butt;stroke-linejoin:round;stroke:rgb(50%,50%,100%);stroke-opacity:1;stroke-dasharray:4;stroke-miterlimit:10;" d="M 482.957944 420.499017 L 530.700131 425.440423 L 531.52435 417.483392 L 555.39935 419.952142 L 561.981381 356.291985 L 538.110288 353.823235 L 535.641538 377.694329 L 487.895444 372.756829 L 482.957944 420.499017 " transform="matrix(1,0,0,-1,31.7569,487.553704)"/>
<path style="fill:none;stroke-width:1.2;stroke-linecap:butt;stroke-linejoin:round;stroke:rgb(20%,20%,20%);stroke-opacity:1;stroke-dasharray:1,3;stroke-miterlimit:10;" d="M 428.075131 406.780267 L 555.395444 419.952142 " transform="matrix(1,0,0,-1,31.7569,487.553704)"/>
<path style=" stroke:none;fill-rule:evenodd;fill:rgb(100%,50%,50%);fill-opacity:1;" d="M 583.832031 116.910156 L 592.832031 107.910156 L 591.574219 106.648438 L 582.574219 115.648438 Z M 583.832031 116.910156 "/>
<path style=" stroke:none;fill-rule:evenodd;fill:rgb(100%,50%,50%);fill-opacity:1;" d="M 583.832031 106.648438 L 592.832031 115.648438 L 591.574219 116.910156 L 582.574219 107.910156 Z M 583.832031 106.648438 "/>
<path style="fill:none;stroke-width:2.4;stroke-linecap:butt;stroke-linejoin:round;stroke:rgb(100%,50%,50%);stroke-opacity:1;stroke-miterlimit:10;" d="M 503.262631 418.581048 C 529.629819 421.30761 553.219663 402.143548 555.946225 375.77636 " transform="matrix(1,0,0,-1,31.7569,487.553704)"/>
<path style="fill:none;stroke-width:1.2;stroke-linecap:butt;stroke-linejoin:round;stroke:rgb(100%,50%,50%);stroke-opacity:1;stroke-miterlimit:10;" d="M 555.946225 375.772454 C 557.942319 356.46386 548.114194 337.850579 531.036069 328.616204 C 513.957944 319.377923 493.000913 321.33886 477.934506 333.581048 C 462.864194 345.823235 456.657163 365.936517 462.200131 384.541985 C 467.7431 403.147454 483.950131 416.581048 503.262631 418.581048 " transform="matrix(1,0,0,-1,31.7569,487.553704)"/>
<path style="fill:none;stroke-width:1.2;stroke-linecap:butt;stroke-linejoin:round;stroke:rgb(20%,20%,20%);stroke-opacity:1;stroke-miterlimit:10;" d="M -31.155338 193.729485 L 240.000912 207.999017 L 352.000913 223.999017 L 384.000913 255.999017 L 496.000913 271.999017 L 767.332944 286.280267 " transform="matrix(1,0,0,-1,31.7569,487.553704)"/>
<path style=" stroke:none;fill-rule:evenodd;fill:rgb(20%,20%,20%);fill-opacity:1;" d="M 361.453125 57.339844 C 361.453125 52.539062 354.253906 52.539062 354.253906 57.339844 C 354.253906 62.140625 361.453125 62.140625 361.453125 57.339844 Z M 361.453125 57.339844 "/>
<path style=" stroke:none;fill-rule:evenodd;fill:rgb(20%,20%,20%);fill-opacity:1;" d="M 427.652344 57.339844 C 427.652344 52.539062 420.449219 52.539062 420.449219 57.339844 C 420.449219 62.140625 427.652344 62.140625 427.652344 57.339844 Z M 427.652344 57.339844 "/>
<path style=" stroke:none;fill-rule:evenodd;fill:rgb(20%,20%,20%);fill-opacity:1;" d="M 380.367188 57.339844 C 380.367188 52.539062 373.167969 52.539062 373.167969 57.339844 C 373.167969 62.140625 380.367188 62.140625 380.367188 57.339844 Z M 380.367188 57.339844 "/>
<path style=" stroke:none;fill-rule:evenodd;fill:rgb(20%,20%,20%);fill-opacity:1;" d="M 370.910156 28.96875 C 370.910156 24.171875 363.710938 24.171875 363.710938 28.96875 C 363.710938 33.769531 370.910156 33.769531 370.910156 28.96875 Z M 370.910156 28.96875 "/>
<path style=" stroke:none;fill-rule:evenodd;fill:rgb(20%,20%,20%);fill-opacity:1;" d="M 389.824219 28.96875 C 389.824219 24.171875 382.625 24.171875 382.625 28.96875 C 382.625 33.769531 389.824219 33.769531 389.824219 28.96875 Z M 389.824219 28.96875 "/>
<path style=" stroke:none;fill-rule:evenodd;fill:rgb(20%,20%,20%);fill-opacity:1;" d="M 418.195312 28.96875 C 418.195312 24.171875 410.992188 24.171875 410.992188 28.96875 C 410.992188 33.769531 418.195312 33.769531 418.195312 28.96875 Z M 418.195312 28.96875 "/>
<path style=" stroke:none;fill-rule:evenodd;fill:rgb(20%,20%,20%);fill-opacity:1;" d="M 370.910156 85.710938 C 370.910156 80.910156 363.710938 80.910156 363.710938 85.710938 C 363.710938 90.511719 370.910156 90.511719 370.910156 85.710938 Z M 370.910156 85.710938 "/>
<path style=" stroke:none;fill-rule:evenodd;fill:rgb(20%,20%,20%);fill-opacity:1;" d="M 408.738281 85.710938 C 408.738281 80.910156 401.535156 80.910156 401.535156 85.710938 C 401.535156 90.511719 408.738281 90.511719 408.738281 85.710938 Z M 408.738281 85.710938 "/>
<path style=" stroke:none;fill-rule:evenodd;fill:rgb(20%,20%,20%);fill-opacity:1;" d="M 427.648438 85.710938 C 427.648438 80.910156 420.449219 80.910156 420.449219 85.710938 C 420.449219 90.511719 427.648438 90.511719 427.648438 85.710938 Z M 427.648438 85.710938 "/>
<path style="fill:none;stroke-width:1.2;stroke-linecap:butt;stroke-linejoin:round;stroke:rgb(50%,50%,100%);stroke-opacity:1;stroke-miterlimit:10;" d="M 129.969662 447.178704 C 205.297787 472.846673 184.653256 431.831048 183.536069 405.190423 C 182.422787 378.545892 200.832944 366.268548 220.641537 379.381829 C 240.450131 392.49511 261.653256 430.99511 290.114194 396.956048 " transform="matrix(1,0,0,-1,31.7569,487.553704)"/>
<path style="fill:none;stroke-width:1.2;stroke-linecap:butt;stroke-linejoin:round;stroke:rgb(50%,50%,100%);stroke-opacity:1;stroke-miterlimit:10;" d="M 257.192319 369.05761 C 254.957944 424.858392 209.204037 410.350579 184.094662 409.049798 C 158.985287 407.74511 154.520444 419.65136 174.469662 432.854485 C 194.418881 446.061517 238.778256 460.569329 200.83685 466.706048 " transform="matrix(1,0,0,-1,31.7569,487.553704)"/>
<path style="fill:none;stroke-width:1.2;stroke-linecap:butt;stroke-linejoin:round;stroke:rgb(50%,50%,100%);stroke-opacity:1;stroke-miterlimit:10;" d="M 241.567319 463.916985 C 268.352475 433.784173 232.360287 416.768548 209.204037 399.608392 C 186.047787 382.452142 175.723569 365.15136 211.9931 355.666985 " transform="matrix(1,0,0,-1,31.7569,487.553704)"/>
<path style="fill:none;stroke-width:1.2;stroke-linecap:butt;stroke-linejoin:round;stroke:rgb(50%,50%,100%);stroke-opacity:1;stroke-miterlimit:10;" d="M 133.528256 423.905267 C 136.172787 375.698235 152.844662 379.49511 169.325131 387.999017 C 185.8056 396.499017 202.094662 409.706048 214.200131 420.823235 C 226.3056 431.936517 234.231381 440.96386 248.344662 445.639642 C 262.46185 450.315423 282.766538 450.647454 288.707944 428.52636 " transform="matrix(1,0,0,-1,31.7569,487.553704)"/>
<path style=" stroke:none;fill-rule:evenodd;fill:rgb(100%,50%,50%);fill-opacity:1;" d="M 187.78125 66.375 C 187.78125 61.574219 180.582031 61.574219 180.582031 66.375 C 180.582031 71.175781 187.78125 71.175781 187.78125 66.375 Z M 187.78125 66.375 "/>
<path style=" stroke:none;fill-rule:evenodd;fill:rgb(100%,50%,50%);fill-opacity:1;" d="M 248.34375 44.882812 C 248.34375 40.082031 241.144531 40.082031 241.144531 44.882812 C 241.144531 49.683594 248.34375 49.683594 248.34375 44.882812 Z M 248.34375 44.882812 "/>
<path style=" stroke:none;fill-rule:evenodd;fill:rgb(100%,50%,50%);fill-opacity:1;" d="M 247.5625 95.484375 C 247.5625 90.683594 240.363281 90.683594 240.363281 95.484375 C 240.363281 100.285156 247.5625 100.285156 247.5625 95.484375 Z M 247.5625 95.484375 "/>
<path style=" stroke:none;fill-rule:evenodd;fill:rgb(100%,50%,50%);fill-opacity:1;" d="M 303.828125 88.449219 C 303.828125 83.652344 296.628906 83.652344 296.628906 88.449219 C 296.628906 93.25 303.828125 93.25 303.828125 88.449219 Z M 303.828125 88.449219 "/>
<path style=" stroke:none;fill-rule:evenodd;fill:rgb(50%,50%,100%);fill-opacity:1;" d="M 556.660156 314.902344 C 556.660156 310.101562 549.460938 310.101562 549.460938 314.902344 C 549.460938 319.703125 556.660156 319.703125 556.660156 314.902344 Z M 556.660156 314.902344 "/>
<path style=" stroke:none;fill-rule:evenodd;fill:rgb(50%,50%,100%);fill-opacity:1;" d="M 620.660156 314.902344 C 620.660156 310.101562 613.460938 310.101562 613.460938 314.902344 C 613.460938 319.703125 620.660156 319.703125 620.660156 314.902344 Z M 620.660156 314.902344 "/>
<path style=" stroke:none;fill-rule:evenodd;fill:rgb(50%,50%,100%);fill-opacity:1;" d="M 652.660156 314.902344 C 652.660156 310.101562 645.460938 310.101562 645.460938 314.902344 C 645.460938 319.703125 652.660156 319.703125 652.660156 314.902344 Z M 652.660156 314.902344 "/>
<path style=" stroke:none;fill-rule:evenodd;fill:rgb(50%,50%,100%);fill-opacity:1;" d="M 476.660156 314.902344 C 476.660156 310.101562 469.460938 310.101562 469.460938 314.902344 C 469.460938 319.703125 476.660156 319.703125 476.660156 314.902344 Z M 476.660156 314.902344 "/>
<path style=" stroke:none;fill-rule:evenodd;fill:rgb(50%,50%,100%);fill-opacity:1;" d="M 540.660156 314.902344 C 540.660156 310.101562 533.460938 310.101562 533.460938 314.902344 C 533.460938 319.703125 540.660156 319.703125 540.660156 314.902344 Z M 540.660156 314.902344 "/>
<path style=" stroke:none;fill-rule:evenodd;fill:rgb(50%,50%,100%);fill-opacity:1;" d="M 572.660156 314.902344 C 572.660156 310.101562 565.460938 310.101562 565.460938 314.902344 C 565.460938 319.703125 572.660156 319.703125 572.660156 314.902344 Z M 572.660156 314.902344 "/>
<path style=" stroke:none;fill-rule:evenodd;fill:rgb(50%,50%,100%);fill-opacity:1;" d="M 428.660156 314.902344 C 428.660156 310.101562 421.460938 310.101562 421.460938 314.902344 C 421.460938 319.703125 428.660156 319.703125 428.660156 314.902344 Z M 428.660156 314.902344 "/>
<path style=" stroke:none;fill-rule:evenodd;fill:rgb(50%,50%,100%);fill-opacity:1;" d="M 492.660156 314.902344 C 492.660156 310.101562 485.460938 310.101562 485.460938 314.902344 C 485.460938 319.703125 492.660156 319.703125 492.660156 314.902344 Z M 492.660156 314.902344 "/>
<path style=" stroke:none;fill-rule:evenodd;fill:rgb(50%,50%,100%);fill-opacity:1;" d="M 524.660156 314.902344 C 524.660156 310.101562 517.460938 310.101562 517.460938 314.902344 C 517.460938 319.703125 524.660156 319.703125 524.660156 314.902344 Z M 524.660156 314.902344 "/>
<path style=" stroke:none;fill-rule:evenodd;fill:rgb(50%,50%,100%);fill-opacity:1;" d="M 236.660156 314.902344 C 236.660156 310.101562 229.460938 310.101562 229.460938 314.902344 C 229.460938 319.703125 236.660156 319.703125 236.660156 314.902344 Z M 236.660156 314.902344 "/>
<path style=" stroke:none;fill-rule:evenodd;fill:rgb(50%,50%,100%);fill-opacity:1;" d="M 300.660156 314.902344 C 300.660156 310.101562 293.460938 310.101562 293.460938 314.902344 C 293.460938 319.703125 300.660156 319.703125 300.660156 314.902344 Z M 300.660156 314.902344 "/>
<path style=" stroke:none;fill-rule:evenodd;fill:rgb(50%,50%,100%);fill-opacity:1;" d="M 332.660156 314.902344 C 332.660156 310.101562 325.460938 310.101562 325.460938 314.902344 C 325.460938 319.703125 332.660156 319.703125 332.660156 314.902344 Z M 332.660156 314.902344 "/>
<path style=" stroke:none;fill-rule:evenodd;fill:rgb(50%,50%,100%);fill-opacity:1;" d="M 28.660156 314.902344 C 28.660156 310.101562 21.460938 310.101562 21.460938 314.902344 C 21.460938 319.703125 28.660156 319.703125 28.660156 314.902344 Z M 28.660156 314.902344 "/>
<path style=" stroke:none;fill-rule:evenodd;fill:rgb(50%,50%,100%);fill-opacity:1;" d="M 92.660156 314.902344 C 92.660156 310.101562 85.460938 310.101562 85.460938 314.902344 C 85.460938 319.703125 92.660156 319.703125 92.660156 314.902344 Z M 92.660156 314.902344 "/>
<path style=" stroke:none;fill-rule:evenodd;fill:rgb(50%,50%,100%);fill-opacity:1;" d="M 124.660156 314.902344 C 124.660156 310.101562 117.460938 310.101562 117.460938 314.902344 C 117.460938 319.703125 124.660156 319.703125 124.660156 314.902344 Z M 124.660156 314.902344 "/>
<path style=" stroke:none;fill-rule:evenodd;fill:rgb(50%,50%,100%);fill-opacity:1;" d="M 44.660156 314.902344 C 44.660156 310.101562 37.460938 310.101562 37.460938 314.902344 C 37.460938 319.703125 44.660156 319.703125 44.660156 314.902344 Z M 44.660156 314.902344 "/>
<path style=" stroke:none;fill-rule:evenodd;fill:rgb(50%,50%,100%);fill-opacity:1;" d="M 108.660156 314.902344 C 108.660156 310.101562 101.460938 310.101562 101.460938 314.902344 C 101.460938 319.703125 108.660156 319.703125 108.660156 314.902344 Z M 108.660156 314.902344 "/>
<path style=" stroke:none;fill-rule:evenodd;fill:rgb(50%,50%,100%);fill-opacity:1;" d="M 140.660156 314.902344 C 140.660156 310.101562 133.460938 310.101562 133.460938 314.902344 C 133.460938 319.703125 140.660156 319.703125 140.660156 314.902344 Z M 140.660156 314.902344 "/>
<path style="fill:none;stroke-width:1.2;stroke-linecap:butt;stroke-linejoin:round;stroke:rgb(20%,20%,20%);stroke-opacity:1;stroke-miterlimit:10;" d="M 612.391538 300.02636 L 603.106381 459.756829 " transform="matrix(1,0,0,-1,31.7569,487.553704)"/>
<path style="fill-rule:evenodd;fill:rgb(20%,20%,20%);fill-opacity:1;stroke-width:1.2;stroke-linecap:butt;stroke-linejoin:round;stroke:rgb(20%,20%,20%);stroke-opacity:1;stroke-miterlimit:10;" d="M 603.106381 459.756829 L 600.364194 449.581048 L 603.571225 451.768548 L 607.012631 449.967767 Z M 603.106381 459.756829 " transform="matrix(1,0,0,-1,31.7569,487.553704)"/>
<path style="fill:none;stroke-width:1.2;stroke-linecap:butt;stroke-linejoin:round;stroke:rgb(20%,20%,20%);stroke-opacity:1;stroke-miterlimit:10;" d="M 612.391538 300.02636 L 763.9306 308.834954 " transform="matrix(1,0,0,-1,31.7569,487.553704)"/>
<path style="fill-rule:evenodd;fill:rgb(20%,20%,20%);fill-opacity:1;stroke-width:1.2;stroke-linecap:butt;stroke-linejoin:round;stroke:rgb(20%,20%,20%);stroke-opacity:1;stroke-miterlimit:10;" d="M 763.9306 308.834954 L 753.754819 311.581048 L 755.946225 308.37011 L 754.141538 304.93261 Z M 763.9306 308.834954 " transform="matrix(1,0,0,-1,31.7569,487.553704)"/>
<path style="fill:none;stroke-width:1.2;stroke-linecap:butt;stroke-linejoin:round;stroke:rgb(20%,20%,20%);stroke-opacity:1;stroke-miterlimit:10;" d="M 628.598569 296.959954 L 628.364194 300.956048 " transform="matrix(1,0,0,-1,31.7569,487.553704)"/>
<path style="fill:none;stroke-width:1.2;stroke-linecap:butt;stroke-linejoin:round;stroke:rgb(20%,20%,20%);stroke-opacity:1;stroke-miterlimit:10;" d="M 660.543881 298.819329 L 660.313413 302.811517 " transform="matrix(1,0,0,-1,31.7569,487.553704)"/>
<path style="fill:none;stroke-width:1.2;stroke-linecap:butt;stroke-linejoin:round;stroke:rgb(20%,20%,20%);stroke-opacity:1;stroke-miterlimit:10;" d="M 668.528256 299.284173 L 668.297788 303.27636 " transform="matrix(1,0,0,-1,31.7569,487.553704)"/>
<path style="fill:none;stroke-width:1.2;stroke-linecap:butt;stroke-linejoin:round;stroke:rgb(20%,20%,20%);stroke-opacity:1;stroke-miterlimit:10;" d="M 716.450131 302.069329 L 716.215756 306.061517 " transform="matrix(1,0,0,-1,31.7569,487.553704)"/>
<path style="fill:none;stroke-width:1.2;stroke-linecap:butt;stroke-linejoin:round;stroke:rgb(20%,20%,20%);stroke-opacity:1;stroke-miterlimit:10;" d="M 740.407163 303.46386 L 740.176694 307.456048 " transform="matrix(1,0,0,-1,31.7569,487.553704)"/>
<path style="fill:none;stroke-width:1.2;stroke-linecap:butt;stroke-linejoin:round;stroke:rgb(20%,20%,20%);stroke-opacity:1;stroke-dasharray:1,3;stroke-miterlimit:10;" d="M 668.297788 303.272454 L 660.403256 439.041985 " transform="matrix(1,0,0,-1,31.7569,487.553704)"/>
<path style="fill:none;stroke-width:1.2;stroke-linecap:butt;stroke-linejoin:round;stroke:rgb(20%,20%,20%);stroke-opacity:1;stroke-dasharray:1,3;stroke-miterlimit:10;" d="M 716.215756 306.05761 L 708.325131 441.827142 " transform="matrix(1,0,0,-1,31.7569,487.553704)"/>
<path style="fill:none;stroke-width:1.2;stroke-linecap:butt;stroke-linejoin:round;stroke:rgb(20%,20%,20%);stroke-opacity:1;stroke-miterlimit:10;" d="M 600.969663 427.577142 L 604.965756 427.811517 " transform="matrix(1,0,0,-1,31.7569,487.553704)"/>
<path style="fill:none;stroke-width:1.2;stroke-linecap:butt;stroke-linejoin:round;stroke:rgb(20%,20%,20%);stroke-opacity:1;stroke-miterlimit:10;" d="M 603.293881 387.647454 L 607.286069 387.877923 " transform="matrix(1,0,0,-1,31.7569,487.553704)"/>
<path style="fill:none;stroke-width:1.2;stroke-linecap:butt;stroke-linejoin:round;stroke:rgb(20%,20%,20%);stroke-opacity:1;stroke-dasharray:1,3;stroke-miterlimit:10;" d="M 607.286069 387.877923 L 735.067319 395.30761 " transform="matrix(1,0,0,-1,31.7569,487.553704)"/>
<path style="fill:none;stroke-width:1.2;stroke-linecap:butt;stroke-linejoin:round;stroke:rgb(20%,20%,20%);stroke-opacity:1;stroke-miterlimit:10;" d="M 604.684506 363.686517 L 608.676694 363.916985 " transform="matrix(1,0,0,-1,31.7569,487.553704)"/>
<path style="fill:none;stroke-width:1.2;stroke-linecap:butt;stroke-linejoin:round;stroke:rgb(20%,20%,20%);stroke-opacity:1;stroke-miterlimit:10;" d="M 607.469663 315.768548 L 611.465756 315.999017 " transform="matrix(1,0,0,-1,31.7569,487.553704)"/>
<path style="fill:none;stroke-width:1.2;stroke-linecap:butt;stroke-linejoin:round;stroke:rgb(20%,20%,20%);stroke-opacity:1;stroke-miterlimit:10;" d="M 600.504819 435.565423 L 604.500913 435.795892 " transform="matrix(1,0,0,-1,31.7569,487.553704)"/>
<path style="fill:none;stroke-width:1.2;stroke-linecap:butt;stroke-linejoin:round;stroke:rgb(20%,20%,20%);stroke-opacity:1;stroke-dasharray:1,3;stroke-miterlimit:10;" d="M 604.500913 435.795892 L 732.286069 443.225579 " transform="matrix(1,0,0,-1,31.7569,487.553704)"/>
<path style="fill:none;stroke-width:1.2;stroke-linecap:butt;stroke-linejoin:round;stroke:rgb(20%,20%,20%);stroke-opacity:1;stroke-dasharray:1,3;stroke-miterlimit:10;" d="M 608.676694 363.916985 L 736.46185 371.346673 " transform="matrix(1,0,0,-1,31.7569,487.553704)"/>
<path style="fill:none;stroke-width:1.2;stroke-linecap:butt;stroke-linejoin:round;stroke:rgb(20%,20%,20%);stroke-opacity:1;stroke-dasharray:1,3;stroke-miterlimit:10;" d="M 611.465756 315.999017 L 739.247006 323.428704 " transform="matrix(1,0,0,-1,31.7569,487.553704)"/>
<path style="fill:none;stroke-width:1.2;stroke-linecap:butt;stroke-linejoin:round;stroke:rgb(20%,20%,20%);stroke-opacity:1;stroke-dasharray:1,3;stroke-miterlimit:10;" d="M 660.313413 302.811517 L 652.418881 438.584954 " transform="matrix(1,0,0,-1,31.7569,487.553704)"/>
<path style="fill:none;stroke-width:1.2;stroke-linecap:butt;stroke-linejoin:round;stroke:rgb(20%,20%,20%);stroke-opacity:1;stroke-dasharray:1,3;stroke-miterlimit:10;" d="M 628.364194 300.956048 L 620.473569 436.725579 " transform="matrix(1,0,0,-1,31.7569,487.553704)"/>
<path style="fill:none;stroke-width:1.2;stroke-linecap:butt;stroke-linejoin:round;stroke:rgb(20%,20%,20%);stroke-opacity:1;stroke-dasharray:1,3;stroke-miterlimit:10;" d="M 604.96185 427.811517 L 732.747006 435.241204 " transform="matrix(1,0,0,-1,31.7569,487.553704)"/>
<path style="fill:none;stroke-width:1.2;stroke-linecap:butt;stroke-linejoin:round;stroke:rgb(20%,20%,20%);stroke-opacity:1;stroke-dasharray:1,3;stroke-miterlimit:10;" d="M 740.176694 307.456048 L 732.286069 443.225579 " transform="matrix(1,0,0,-1,31.7569,487.553704)"/>
<path style="fill:none;stroke-width:2.4;stroke-linecap:butt;stroke-linejoin:round;stroke:rgb(50%,100%,50%);stroke-opacity:1;stroke-miterlimit:10;" d="M 660.8681 431.061517 L 663.192319 391.127923 L 711.110288 393.913079 L 708.789975 433.846673 Z M 660.8681 431.061517 " transform="matrix(1,0,0,-1,31.7569,487.553704)"/>
<path style="fill:none;stroke-width:1.2;stroke-linecap:butt;stroke-linejoin:round;stroke:rgb(20%,20%,20%);stroke-opacity:1;stroke-miterlimit:10;" d="M 612.391538 300.02636 L 608.39935 299.795892 " transform="matrix(1,0,0,-1,31.7569,487.553704)"/>
<path style="fill:none;stroke-width:1.2;stroke-linecap:butt;stroke-linejoin:round;stroke:rgb(20%,20%,20%);stroke-opacity:1;stroke-miterlimit:10;" d="M 612.391538 300.02636 L 612.625913 296.034173 " transform="matrix(1,0,0,-1,31.7569,487.553704)"/>
<path style="fill:none;stroke-width:1.2;stroke-linecap:butt;stroke-linejoin:round;stroke:rgb(20%,20%,20%);stroke-opacity:1;stroke-miterlimit:10;" d="M 590.6181 398.928704 L 702.426694 405.428704 " transform="matrix(1,0,0,-1,31.7569,487.553704)"/>
<path style="fill:none;stroke-width:1.2;stroke-linecap:butt;stroke-linejoin:round;stroke:rgb(20%,20%,20%);stroke-opacity:1;stroke-miterlimit:10;" d="M 702.426694 405.428704 L 709.161069 289.624017 " transform="matrix(1,0,0,-1,31.7569,487.553704)"/>
<path style="fill:none;stroke-width:1.2;stroke-linecap:butt;stroke-linejoin:round;stroke:rgb(20%,20%,20%);stroke-opacity:1;stroke-miterlimit:10;" d="M 589.454038 418.897454 L 685.293881 424.467767 " transform="matrix(1,0,0,-1,31.7569,487.553704)"/>
<path style="fill:none;stroke-width:1.2;stroke-linecap:butt;stroke-linejoin:round;stroke:rgb(20%,20%,20%);stroke-opacity:1;stroke-miterlimit:10;" d="M 685.293881 424.467767 L 693.188413 288.698235 " transform="matrix(1,0,0,-1,31.7569,487.553704)"/>
<path style="fill-rule:evenodd;fill:rgb(20%,20%,20%);fill-opacity:1;stroke-width:1.2;stroke-linecap:butt;stroke-linejoin:round;stroke:rgb(20%,20%,20%);stroke-opacity:1;stroke-miterlimit:10;" d="M 700.383725 407.112298 L 700.614194 403.12011 L 704.606381 403.350579 L 704.375913 407.342767 Z M 700.383725 407.112298 " transform="matrix(1,0,0,-1,31.7569,487.553704)"/>
<path style="fill-rule:evenodd;fill:rgb(20%,20%,20%);fill-opacity:1;stroke-width:1.2;stroke-linecap:butt;stroke-linejoin:round;stroke:rgb(20%,20%,20%);stroke-opacity:1;stroke-miterlimit:10;" d="M 683.184506 426.342767 L 683.418881 422.350579 L 687.411069 422.584954 L 687.176694 426.577142 Z M 683.184506 426.342767 " transform="matrix(1,0,0,-1,31.7569,487.553704)"/>
<path style="fill:none;stroke-width:2.4;stroke-linecap:butt;stroke-linejoin:round;stroke:rgb(20%,20%,20%);stroke-opacity:1;stroke-miterlimit:10;" d="M 607.286069 387.877923 L 604.965756 427.811517 " transform="matrix(1,0,0,-1,31.7569,487.553704)"/>
<path style="fill:none;stroke-width:2.4;stroke-linecap:butt;stroke-linejoin:round;stroke:rgb(20%,20%,20%);stroke-opacity:1;stroke-miterlimit:10;" d="M 668.297788 303.27636 L 716.219663 306.061517 " transform="matrix(1,0,0,-1,31.7569,487.553704)"/>
<path style="fill:none;stroke-width:2.4;stroke-linecap:butt;stroke-linejoin:round;stroke:rgb(20%,20%,20%);stroke-opacity:1;stroke-miterlimit:10;" d="M 600.969663 427.577142 L 608.957944 428.041985 " transform="matrix(1,0,0,-1,31.7569,487.553704)"/>
<path style="fill:none;stroke-width:2.4;stroke-linecap:butt;stroke-linejoin:round;stroke:rgb(20%,20%,20%);stroke-opacity:1;stroke-miterlimit:10;" d="M 603.293881 387.647454 L 611.278256 388.108392 " transform="matrix(1,0,0,-1,31.7569,487.553704)"/>
<path style="fill:none;stroke-width:2.4;stroke-linecap:butt;stroke-linejoin:round;stroke:rgb(20%,20%,20%);stroke-opacity:1;stroke-miterlimit:10;" d="M 668.067319 307.268548 L 668.532163 299.284173 " transform="matrix(1,0,0,-1,31.7569,487.553704)"/>
<path style="fill:none;stroke-width:2.4;stroke-linecap:butt;stroke-linejoin:round;stroke:rgb(20%,20%,20%);stroke-opacity:1;stroke-miterlimit:10;" d="M 715.985288 310.05761 L 716.450131 302.069329 " transform="matrix(1,0,0,-1,31.7569,487.553704)"/>
<path style="fill:none;stroke-width:2.4;stroke-linecap:butt;stroke-linejoin:round;stroke:rgb(20%,20%,20%);stroke-opacity:1;stroke-miterlimit:10;" d="M 607.286069 387.877923 L 604.965756 427.811517 " transform="matrix(1,0,0,-1,31.7569,487.553704)"/>
<path style="fill:none;stroke-width:2.4;stroke-linecap:butt;stroke-linejoin:round;stroke:rgb(20%,20%,20%);stroke-opacity:1;stroke-miterlimit:10;" d="M 668.297788 303.27636 L 716.219663 306.061517 " transform="matrix(1,0,0,-1,31.7569,487.553704)"/>
<path style="fill:none;stroke-width:2.4;stroke-linecap:butt;stroke-linejoin:round;stroke:rgb(20%,20%,20%);stroke-opacity:1;stroke-miterlimit:10;" d="M 600.969663 427.577142 L 608.957944 428.041985 " transform="matrix(1,0,0,-1,31.7569,487.553704)"/>
<path style="fill:none;stroke-width:2.4;stroke-linecap:butt;stroke-linejoin:round;stroke:rgb(20%,20%,20%);stroke-opacity:1;stroke-miterlimit:10;" d="M 603.293881 387.647454 L 611.278256 388.108392 " transform="matrix(1,0,0,-1,31.7569,487.553704)"/>
<path style="fill:none;stroke-width:2.4;stroke-linecap:butt;stroke-linejoin:round;stroke:rgb(20%,20%,20%);stroke-opacity:1;stroke-miterlimit:10;" d="M 668.067319 307.268548 L 668.532163 299.284173 " transform="matrix(1,0,0,-1,31.7569,487.553704)"/>
<path style="fill:none;stroke-width:2.4;stroke-linecap:butt;stroke-linejoin:round;stroke:rgb(20%,20%,20%);stroke-opacity:1;stroke-miterlimit:10;" d="M 715.985288 310.05761 L 716.450131 302.069329 " transform="matrix(1,0,0,-1,31.7569,487.553704)"/>
<path style=" stroke:none;fill-rule:evenodd;fill:rgb(50%,100%,50%);fill-opacity:1;" d="M 476.660156 266.902344 C 476.660156 262.101562 469.460938 262.101562 469.460938 266.902344 C 469.460938 271.703125 476.660156 271.703125 476.660156 266.902344 Z M 476.660156 266.902344 "/>
<path style=" stroke:none;fill-rule:evenodd;fill:rgb(50%,100%,50%);fill-opacity:1;" d="M 588.660156 266.902344 C 588.660156 262.101562 581.460938 262.101562 581.460938 266.902344 C 581.460938 271.703125 588.660156 271.703125 588.660156 266.902344 Z M 588.660156 266.902344 "/>
<path style=" stroke:none;fill-rule:evenodd;fill:rgb(50%,100%,50%);fill-opacity:1;" d="M 508.660156 266.902344 C 508.660156 262.101562 501.460938 262.101562 501.460938 266.902344 C 501.460938 271.703125 508.660156 271.703125 508.660156 266.902344 Z M 508.660156 266.902344 "/>
<path style=" stroke:none;fill-rule:evenodd;fill:rgb(50%,100%,50%);fill-opacity:1;" d="M 460.660156 266.902344 C 460.660156 262.101562 453.460938 262.101562 453.460938 266.902344 C 453.460938 271.703125 460.660156 271.703125 460.660156 266.902344 Z M 460.660156 266.902344 "/>
<path style=" stroke:none;fill-rule:evenodd;fill:rgb(50%,100%,50%);fill-opacity:1;" d="M 492.660156 266.902344 C 492.660156 262.101562 485.460938 262.101562 485.460938 266.902344 C 485.460938 271.703125 492.660156 271.703125 492.660156 266.902344 Z M 492.660156 266.902344 "/>
<path style="fill:none;stroke-width:1.2;stroke-linecap:butt;stroke-linejoin:round;stroke:rgb(20%,20%,20%);stroke-opacity:1;stroke-miterlimit:10;" d="M 441.247006 279.459954 L 592.239194 295.081048 " transform="matrix(1,0,0,-1,31.7569,487.553704)"/>
<path style="fill-rule:evenodd;fill:rgb(20%,20%,20%);fill-opacity:1;stroke-width:1.2;stroke-linecap:butt;stroke-linejoin:round;stroke:rgb(20%,20%,20%);stroke-opacity:1;stroke-miterlimit:10;" d="M 592.239194 295.081048 L 581.950131 297.366204 L 584.282163 294.256829 L 582.633725 290.741204 Z M 592.239194 295.081048 " transform="matrix(1,0,0,-1,31.7569,487.553704)"/>
<path style="fill:none;stroke-width:1.2;stroke-linecap:butt;stroke-linejoin:round;stroke:rgb(20%,20%,20%);stroke-opacity:1;stroke-miterlimit:10;" d="M 568.977475 288.655267 L 568.567319 292.631829 " transform="matrix(1,0,0,-1,31.7569,487.553704)"/>
<path style="fill:none;stroke-width:1.2;stroke-linecap:butt;stroke-linejoin:round;stroke:rgb(20%,20%,20%);stroke-opacity:1;stroke-dasharray:1,3;stroke-miterlimit:10;" d="M 568.567319 292.631829 L 554.575131 427.909173 " transform="matrix(1,0,0,-1,31.7569,487.553704)"/>
<path style=" stroke:none;fill-rule:evenodd;fill:rgb(50%,100%,50%);fill-opacity:1;" d="M 540.660156 266.902344 C 540.660156 262.101562 533.460938 262.101562 533.460938 266.902344 C 533.460938 271.703125 540.660156 271.703125 540.660156 266.902344 Z M 540.660156 266.902344 "/>
</g>
</svg>
